<?xml version="1.0" encoding="UTF-8" standalone="no"?>
<svg
   xmlns:dc="http://purl.org/dc/elements/1.1/"
   xmlns:cc="http://creativecommons.org/ns#"
   xmlns:rdf="http://www.w3.org/1999/02/22-rdf-syntax-ns#"
   xmlns:svg="http://www.w3.org/2000/svg"
   xmlns="http://www.w3.org/2000/svg"
   viewBox="0 0 369.11868 71.763069"
   height="71.763069"
   width="369.11868"
   xml:space="preserve"
   id="svg2"
   version="1.1"><metadata
     id="metadata8"><rdf:RDF><cc:Work
         rdf:about=""><dc:format>image/svg+xml</dc:format><dc:type
           rdf:resource="http://purl.org/dc/dcmitype/StillImage" /></cc:Work></rdf:RDF></metadata><defs
     id="defs6"><clipPath
       id="clipPath18"
       clipPathUnits="userSpaceOnUse"><path
         id="path16"
         d="M 0,53.822 H 276.839 V 0 H 0 Z" /></clipPath></defs><g
     transform="matrix(1.3333333,0,0,-1.3333333,0,71.763067)"
     id="g10"><g
       id="g12"><g
         clip-path="url(#clipPath18)"
         id="g14"><g
           transform="translate(0,53.8223)"
           id="g20"><path
             id="path22"
             style="fill:#231f20;fill-opacity:1;fill-rule:nonzero;stroke:none"
             d="m 0,0 h 6.54 v -11.621 c 1.56,0.624 3.399,0.977 5.52,1.061 4.48,0.08 8.16,-1.129 11.04,-3.628 2.88,-2.499 4.32,-6.006 4.32,-10.52 V -42 h -6.54 v 17.16 c 0,2.52 -0.83,4.49 -2.49,5.91 -1.66,1.419 -3.77,2.13 -6.33,2.13 -1.92,0 -3.76,-0.3 -5.52,-0.9 l 0,-24.3 H 0 Z" /></g><path
           id="path24"
           style="fill:#231f20;fill-opacity:1;fill-rule:nonzero;stroke:none"
           d="m 35.28,42.362 h 6.54 v -30.54 h -6.54 z m 6.6,4.14 h -6.66 v 7.32 h 6.66 z" /><g
           transform="translate(49.4995,42.3623)"
           id="g26"><path
             id="path28"
             style="fill:#231f20;fill-opacity:1;fill-rule:nonzero;stroke:none"
             d="m 0,0 h 5.64 l 0.45,-3.463 c 1.38,2.621 3.789,3.995 7.23,4.123 2.559,0 4.88,-0.691 6.96,-2.071 L 17.52,-6.94 c -1.641,0.867 -3.27,1.31 -4.89,1.33 C 11.01,-5.59 9.589,-6.143 8.37,-7.266 7.149,-8.39 6.54,-9.878 6.54,-11.731 V -30.54 H 0 Z" /></g><g
           transform="translate(83.6055,30.248)"
           id="g30"><path
             id="path32"
             style="fill:#231f20;fill-opacity:1;fill-rule:nonzero;stroke:none"
             d="m 0,0 c 2.915,-0.55 5.349,-1.582 7.303,-3.094 1.954,-1.512 2.931,-3.623 2.931,-6.334 0,-3.26 -1.176,-5.686 -3.526,-7.275 -2.349,-1.589 -5.003,-2.383 -7.959,-2.383 -4.523,0 -8.124,1.995 -10.803,5.985 l 4.079,3.909 c 1.804,-2.24 3.97,-3.458 6.496,-3.654 1.323,-0.08 2.516,0.145 3.579,0.676 1.062,0.531 1.594,1.386 1.594,2.565 0,2.16 -1.709,3.536 -5.124,4.125 -6.544,1.061 -9.836,3.997 -9.876,8.81 0,2.795 1.104,4.998 3.313,6.608 2.208,1.611 4.833,2.416 7.874,2.416 3.812,0 7.016,-1.27 9.612,-3.811 L 5.792,4.655 C 3.821,6.148 1.89,6.894 0,6.894 c -1.232,0 -2.344,-0.285 -3.336,-0.855 -0.995,-0.57 -1.471,-1.463 -1.43,-2.68 0,-0.276 0.029,-0.531 0.089,-0.766 0.06,-0.236 0.169,-0.452 0.328,-0.649 C -4.191,1.748 -4.052,1.581 -3.933,1.443 -3.814,1.306 -3.625,1.168 -3.367,1.031 -3.108,0.893 -2.909,0.786 -2.771,0.707 -2.632,0.628 -2.394,0.55 -2.056,0.471 -1.718,0.393 -1.49,0.333 -1.371,0.294 -1.251,0.255 -1.003,0.197 -0.626,0.118 -0.25,0.039 -0.041,0 0,0" /></g><g
           transform="translate(112.0186,18.0024)"
           id="g34"><path
             id="path36"
             style="fill:#231f20;fill-opacity:1;fill-rule:nonzero;stroke:none"
             d="m 0,0 v -6.24 c -3.681,-0.36 -6.621,0.255 -8.82,1.845 -2.201,1.59 -3.3,4.158 -3.3,7.703 V 18.78 h -3.54 v 5.46 h 3.54 v 11.58 h 6.54 V 24.24 H 0 V 18.78 H -5.58 V 3.73 c 0,-1.269 0.485,-2.251 1.454,-2.944 C -3.157,0.092 -1.781,-0.171 0,0" /></g><g
           transform="translate(131.8408,37.2622)"
           id="g38"><path
             id="path40"
             style="fill:#4bb6e8;fill-opacity:1;fill-rule:nonzero;stroke:none"
             d="m 0,0 c -2.908,0 -5.2,-1.028 -6.873,-3.084 -1.673,-2.057 -2.51,-4.409 -2.51,-7.055 0,-2.689 0.837,-5.061 2.51,-7.116 1.672,-2.057 3.964,-3.085 6.873,-3.085 1.792,0 3.624,0.285 5.497,0.855 0,2.158 0.01,5.314 0.03,9.468 0.02,4.153 0.03,7.329 0.03,9.529 C 3.565,-0.163 1.712,0 0,0 m 12.037,3.563 v -27.614 c 0,-4.183 -1.272,-7.41 -3.816,-9.682 -2.545,-2.271 -5.64,-3.446 -9.286,-3.527 -5.21,-0.08 -9.657,1.831 -13.344,5.731 l 3.573,3.989 c 1.196,-1.085 2.702,-1.946 4.517,-2.584 1.815,-0.637 3.579,-0.935 5.295,-0.896 1.834,0.038 3.369,0.553 4.606,1.544 1.236,0.993 1.855,2.518 1.855,4.577 C 3.604,-25.499 1.792,-25.8 0,-25.8 c -4.928,0 -8.823,1.578 -11.687,4.734 -2.864,3.155 -4.276,6.857 -4.236,11.104 0.08,4.129 1.542,7.731 4.386,10.808 C -8.693,3.921 -4.847,5.46 0,5.46 4.453,5.46 8.465,4.827 12.037,3.563" /></g><g
           transform="translate(152.458,42.3623)"
           id="g42"><path
             id="path44"
             style="fill:#4bb6e8;fill-opacity:1;fill-rule:nonzero;stroke:none"
             d="m 0,0 h 5.64 l 0.45,-3.463 c 1.38,2.621 3.789,3.995 7.23,4.123 2.559,0 4.88,-0.691 6.96,-2.071 L 17.52,-6.94 c -1.641,0.867 -3.27,1.31 -4.89,1.33 C 11.01,-5.59 9.589,-6.143 8.37,-7.266 7.149,-8.39 6.54,-9.878 6.54,-11.731 V -30.54 H 0 Z" /></g><g
           transform="translate(183.5381,34.0767)"
           id="g46"><path
             id="path48"
             style="fill:#4bb6e8;fill-opacity:1;fill-rule:nonzero;stroke:none"
             d="m 0,0 c -1.881,-1.644 -2.82,-3.993 -2.82,-7.047 0,-3.055 0.939,-5.423 2.82,-7.104 1.88,-1.682 4.06,-2.523 6.54,-2.523 2.521,0 4.7,0.841 6.54,2.523 1.84,1.681 2.76,4.049 2.76,7.104 0,3.054 -0.92,5.403 -2.76,7.047 C 11.24,1.644 9.061,2.466 6.54,2.466 4.06,2.466 1.88,1.644 0,0 m 22.38,-7.046 c 0,-4.449 -1.5,-8.205 -4.5,-11.271 -3,-3.065 -6.78,-4.598 -11.34,-4.598 -4.52,0 -8.301,1.572 -11.34,4.715 -3.04,3.144 -4.56,6.862 -4.56,11.154 0,4.292 1.52,7.989 4.56,11.094 3.039,3.105 6.82,4.658 11.34,4.658 4.56,0 8.34,-1.508 11.34,-4.523 3,-3.015 4.5,-6.757 4.5,-11.229" /></g><g
           transform="translate(240.0576,42.3022)"
           id="g50"><path
             id="path52"
             style="fill:#4bb6e8;fill-opacity:1;fill-rule:nonzero;stroke:none"
             d="m 0,0 v -28.808 c -4.132,-1.555 -8.225,-2.332 -12.276,-2.332 -4.488,0 -8.203,1.24 -11.147,3.72 -2.945,2.48 -4.417,5.92 -4.417,10.32 v 17.04 h 6.54 v -16.836 c 0,-2.53 0.847,-4.497 2.54,-5.899 1.693,-1.404 3.834,-2.105 6.424,-2.105 2.51,0 4.441,0.217 5.796,0.652 L -6.54,0 Z" /></g><g
           transform="translate(260.8779,37.3823)"
           id="g54"><path
             id="path56"
             style="fill:#4bb6e8;fill-opacity:1;fill-rule:nonzero;stroke:none"
             d="M 0,0 C -2.04,-0.079 -3.861,-0.276 -5.46,-0.589 V -18.84 c 3.72,-1.783 7.119,-1.694 10.199,0.267 3.08,1.961 4.641,4.823 4.681,8.589 0.039,2.535 -0.79,4.832 -2.49,6.893 C 5.229,-1.03 2.919,0 0,0 M -5.46,-37.08 H -12 V 3.64 c 3.52,1.214 7.52,1.82 12,1.82 4.897,0 8.792,-1.554 11.683,-4.663 2.891,-3.109 4.316,-6.755 4.277,-10.939 0,-3.427 -0.983,-6.557 -2.948,-9.386 -1.967,-2.829 -4.544,-4.783 -7.733,-5.859 -3.188,-1.075 -6.768,-0.973 -10.739,0.307 z" /></g></g></g></g></svg>